P3
4 4
255
0 38 255 63 91 255 127 146 255 191 200 255
0 38 255 63 91 255 127 146 255 191 200 255
0 38 255 63 91 255 127 146 255 191 200 255
0 38 255 63 91 255 127 146 255 191 200 255
