P3
4 4
255
255 217 0 192 164 0 128 109 0 64 55 0
255 217 0 192 164 0 128 109 0 64 55 0
255 217 0 192 164 0 128 109 0 64 55 0
255 217 0 192 164 0 128 109 0 64 55 0
