P3
30 30
255
206 206 206 197 197 197 188 188 188 178 178 178 169 169 169 160 160 160 151 151 151 142 142 142 132 132 132 123 123 123 114 114 114 105 105 105 96 96 96 86 86 86 77 77 77 68 68 68 77 77 77 86 86 86 96 96 96 105 105 105 114 114 114 123 123 123 132 132 132 142 142 142 151 151 151 160 160 160 169 169 169 178 178 178 188 188 188 197 197 197
206 206 206 197 197 197 188 188 188 178 178 178 169 169 169 160 160 160 151 151 151 142 142 142 132 132 132 123 123 123 114 114 114 105 105 105 96 96 96 86 86 86 77 77 77 68 68 68 77 77 77 86 86 86 96 96 96 105 105 105 114 114 114 123 123 123 132 132 132 142 142 142 151 151 151 160 160 160 169 169 169 178 178 178 188 188 188 197 197 197
206 206 206 197 197 197 188 188 188 178 178 178 169 169 169 160 160 160 151 151 151 142 142 142 132 132 132 123 123 123 114 114 114 105 105 105 96 96 96 86 86 86 77 77 77 68 68 68 77 77 77 86 86 86 96 96 96 105 105 105 114 114 114 123 123 123 132 132 132 142 142 142 151 151 151 160 160 160 169 169 169 178 178 178 188 188 188 197 197 197
206 206 206 197 197 197 188 188 188 178 178 178 169 169 169 160 160 160 151 151 151 142 142 142 132 132 132 123 123 123 114 114 114 105 105 105 96 96 96 86 86 86 77 77 77 68 68 68 77 77 77 86 86 86 96 96 96 105 105 105 114 114 114 123 123 123 132 132 132 142 142 142 151 151 151 160 160 160 169 169 169 178 178 178 188 188 188 197 197 197
206 206 206 197 197 197 188 188 188 178 178 178 169 169 169 160 160 160 151 151 151 142 142 142 132 132 132 123 123 123 114 114 114 105 105 105 96 96 96 86 86 86 77 77 77 68 68 68 77 77 77 86 86 86 96 96 96 105 105 105 114 114 114 123 123 123 132 132 132 142 142 142 151 151 151 160 160 160 169 169 169 178 178 178 188 188 188 197 197 197
206 206 206 197 197 197 188 188 188 178 178 178 169 169 169 160 160 160 151 151 151 142 142 142 132 132 132 123 123 123 114 114 114 105 105 105 96 96 96 86 86 86 77 77 77 68 68 68 77 77 77 86 86 86 96 96 96 105 105 105 114 114 114 123 123 123 132 132 132 142 142 142 151 151 151 160 160 160 169 169 169 178 178 178 188 188 188 197 197 197
206 206 206 197 197 197 188 188 188 178 178 178 169 169 169 160 160 160 151 151 151 142 142 142 132 132 132 123 123 123 114 114 114 105 105 105 96 96 96 86 86 86 77 77 77 68 68 68 77 77 77 86 86 86 96 96 96 105 105 105 114 114 114 123 123 123 132 132 132 142 142 142 151 151 151 160 160 160 169 169 169 178 178 178 188 188 188 197 197 197
206 206 206 197 197 197 188 188 188 178 178 178 169 169 169 160 160 160 151 151 151 142 142 142 132 132 132 123 123 123 114 114 114 105 105 105 96 96 96 86 86 86 77 77 77 68 68 68 77 77 77 86 86 86 96 96 96 105 105 105 114 114 114 123 123 123 132 132 132 142 142 142 151 151 151 160 160 160 169 169 169 178 178 178 188 188 188 197 197 197
206 206 206 197 197 197 188 188 188 178 178 178 169 169 169 160 160 160 151 151 151 142 142 142 132 132 132 123 123 123 114 114 114 105 105 105 96 96 96 86 86 86 77 77 77 68 68 68 77 77 77 86 86 86 96 96 96 105 105 105 114 114 114 123 123 123 132 132 132 142 142 142 151 151 151 160 160 160 169 169 169 178 178 178 188 188 188 197 197 197
206 206 206 197 197 197 188 188 188 178 178 178 169 169 169 160 160 160 151 151 151 142 142 142 132 132 132 123 123 123 114 114 114 105 105 105 96 96 96 86 86 86 77 77 77 68 68 68 77 77 77 86 86 86 96 96 96 105 105 105 114 114 114 123 123 123 132 132 132 142 142 142 151 151 151 160 160 160 169 169 169 178 178 178 188 188 188 197 197 197
206 206 206 197 197 197 188 188 188 178 178 178 169 169 169 160 160 160 151 151 151 142 142 142 132 132 132 123 123 123 114 114 114 105 105 105 96 96 96 86 86 86 77 77 77 68 68 68 77 77 77 86 86 86 96 96 96 105 105 105 114 114 114 123 123 123 132 132 132 142 142 142 151 151 151 160 160 160 169 169 169 178 178 178 188 188 188 197 197 197
206 206 206 197 197 197 188 188 188 178 178 178 169 169 169 160 160 160 151 151 151 142 142 142 132 132 132 123 123 123 114 114 114 105 105 105 96 96 96 86 86 86 77 77 77 68 68 68 77 77 77 86 86 86 96 96 96 105 105 105 114 114 114 123 123 123 132 132 132 142 142 142 151 151 151 160 160 160 169 169 169 178 178 178 188 188 188 197 197 197
206 206 206 197 197 197 188 188 188 178 178 178 169 169 169 160 160 160 151 151 151 142 142 142 132 132 132 123 123 123 114 114 114 105 105 105 96 96 96 86 86 86 77 77 77 68 68 68 77 77 77 86 86 86 96 96 96 105 105 105 114 114 114 123 123 123 132 132 132 142 142 142 151 151 151 160 160 160 169 169 169 178 178 178 188 188 188 197 197 197
206 206 206 197 197 197 188 188 188 178 178 178 169 169 169 160 160 160 151 151 151 142 142 142 132 132 132 123 123 123 114 114 114 105 105 105 96 96 96 86 86 86 77 77 77 68 68 68 77 77 77 86 86 86 96 96 96 105 105 105 114 114 114 123 123 123 132 132 132 142 142 142 151 151 151 160 160 160 169 169 169 178 178 178 188 188 188 197 197 197
206 206 206 197 197 197 188 188 188 178 178 178 169 169 169 160 160 160 151 151 151 142 142 142 132 132 132 123 123 123 114 114 114 105 105 105 96 96 96 86 86 86 77 77 77 68 68 68 77 77 77 86 86 86 96 96 96 105 105 105 114 114 114 123 123 123 132 132 132 142 142 142 151 151 151 160 160 160 169 169 169 178 178 178 188 188 188 197 197 197
206 206 206 197 197 197 188 188 188 178 178 178 169 169 169 160 160 160 151 151 151 142 142 142 132 132 132 123 123 123 114 114 114 105 105 105 96 96 96 86 86 86 77 77 77 68 68 68 77 77 77 86 86 86 96 96 96 105 105 105 114 114 114 123 123 123 132 132 132 142 142 142 151 151 151 160 160 160 169 169 169 178 178 178 188 188 188 197 197 197
206 206 206 197 197 197 188 188 188 178 178 178 169 169 169 160 160 160 151 151 151 142 142 142 132 132 132 123 123 123 114 114 114 105 105 105 96 96 96 86 86 86 77 77 77 68 68 68 77 77 77 86 86 86 96 96 96 105 105 105 114 114 114 123 123 123 132 132 132 142 142 142 151 151 151 160 160 160 169 169 169 178 178 178 188 188 188 197 197 197
206 206 206 197 197 197 188 188 188 178 178 178 169 169 169 160 160 160 151 151 151 142 142 142 132 132 132 123 123 123 114 114 114 105 105 105 96 96 96 86 86 86 77 77 77 68 68 68 77 77 77 86 86 86 96 96 96 105 105 105 114 114 114 123 123 123 132 132 132 142 142 142 151 151 151 160 160 160 169 169 169 178 178 178 188 188 188 197 197 197
206 206 206 197 197 197 188 188 188 178 178 178 169 169 169 160 160 160 151 151 151 142 142 142 132 132 132 123 123 123 114 114 114 105 105 105 96 96 96 86 86 86 77 77 77 68 68 68 77 77 77 86 86 86 96 96 96 105 105 105 114 114 114 123 123 123 132 132 132 142 142 142 151 151 151 160 160 160 169 169 169 178 178 178 188 188 188 197 197 197
206 206 206 197 197 197 188 188 188 178 178 178 169 169 169 160 160 160 151 151 151 142 142 142 132 132 132 123 123 123 114 114 114 105 105 105 96 96 96 86 86 86 77 77 77 68 68 68 77 77 77 86 86 86 96 96 96 105 105 105 114 114 114 123 123 123 132 132 132 142 142 142 151 151 151 160 160 160 169 169 169 178 178 178 188 188 188 197 197 197
206 206 206 197 197 197 188 188 188 178 178 178 169 169 169 160 160 160 151 151 151 142 142 142 132 132 132 123 123 123 114 114 114 105 105 105 96 96 96 86 86 86 77 77 77 68 68 68 77 77 77 86 86 86 96 96 96 105 105 105 114 114 114 123 123 123 132 132 132 142 142 142 151 151 151 160 160 160 169 169 169 178 178 178 188 188 188 197 197 197
206 206 206 197 197 197 188 188 188 178 178 178 169 169 169 160 160 160 151 151 151 142 142 142 132 132 132 123 123 123 114 114 114 105 105 105 96 96 96 86 86 86 77 77 77 68 68 68 77 77 77 86 86 86 96 96 96 105 105 105 114 114 114 123 123 123 132 132 132 142 142 142 151 151 151 160 160 160 169 169 169 178 178 178 188 188 188 197 197 197
206 206 206 197 197 197 188 188 188 178 178 178 169 169 169 160 160 160 151 151 151 142 142 142 132 132 132 123 123 123 114 114 114 105 105 105 96 96 96 86 86 86 77 77 77 68 68 68 77 77 77 86 86 86 96 96 96 105 105 105 114 114 114 123 123 123 132 132 132 142 142 142 151 151 151 160 160 160 169 169 169 178 178 178 188 188 188 197 197 197
206 206 206 197 197 197 188 188 188 178 178 178 169 169 169 160 160 160 151 151 151 142 142 142 132 132 132 123 123 123 114 114 114 105 105 105 96 96 96 86 86 86 77 77 77 68 68 68 77 77 77 86 86 86 96 96 96 105 105 105 114 114 114 123 123 123 132 132 132 142 142 142 151 151 151 160 160 160 169 169 169 178 178 178 188 188 188 197 197 197
206 206 206 197 197 197 188 188 188 178 178 178 169 169 169 160 160 160 151 151 151 142 142 142 132 132 132 123 123 123 114 114 114 105 105 105 96 96 96 86 86 86 77 77 77 68 68 68 77 77 77 86 86 86 96 96 96 105 105 105 114 114 114 123 123 123 132 132 132 142 142 142 151 151 151 160 160 160 169 169 169 178 178 178 188 188 188 197 197 197
206 206 206 197 197 197 188 188 188 178 178 178 169 169 169 160 160 160 151 151 151 142 142 142 132 132 132 123 123 123 114 114 114 105 105 105 96 96 96 86 86 86 77 77 77 68 68 68 77 77 77 86 86 86 96 96 96 105 105 105 114 114 114 123 123 123 132 132 132 142 142 142 151 151 151 160 160 160 169 169 169 178 178 178 188 188 188 197 197 197
206 206 206 197 197 197 188 188 188 178 178 178 169 169 169 160 160 160 151 151 151 142 142 142 132 132 132 123 123 123 114 114 114 105 105 105 96 96 96 86 86 86 77 77 77 68 68 68 77 77 77 86 86 86 96 96 96 105 105 105 114 114 114 123 123 123 132 132 132 142 142 142 151 151 151 160 160 160 169 169 169 178 178 178 188 188 188 197 197 197
206 206 206 197 197 197 188 188 188 178 178 178 169 169 169 160 160 160 151 151 151 142 142 142 132 132 132 123 123 123 114 114 114 105 105 105 96 96 96 86 86 86 77 77 77 68 68 68 77 77 77 86 86 86 96 96 96 105 105 105 114 114 114 123 123 123 132 132 132 142 142 142 151 151 151 160 160 160 169 169 169 178 178 178 188 188 188 197 197 197
206 206 206 197 197 197 188 188 188 178 178 178 169 169 169 160 160 160 151 151 151 142 142 142 132 132 132 123 123 123 114 114 114 105 105 105 96 96 96 86 86 86 77 77 77 68 68 68 77 77 77 86 86 86 96 96 96 105 105 105 114 114 114 123 123 123 132 132 132 142 142 142 151 151 151 160 160 160 169 169 169 178 178 178 188 188 188 197 197 197
206 206 206 197 197 197 188 188 188 178 178 178 169 169 169 160 160 160 151 151 151 142 142 142 132 132 132 123 123 123 114 114 114 105 105 105 96 96 96 86 86 86 77 77 77 68 68 68 77 77 77 86 86 86 96 96 96 105 105 105 114 114 114 123 123 123 132 132 132 142 142 142 151 151 151 160 160 160 169 169 169 178 178 178 188 188 188 197 197 197
