P3
# Created by the Paint.NET plugin 'ImPNM.FileType'
10 10
255
255 0 0 255 1 0 255 6 3 255 13 8 255 22 13 255 33 19 255 45 26
255 58 34 255 71 41 255 87 50 255 1 1 255 7 4 255 16 9 255 25 15
255 37 22 255 51 30 255 66 39 255 80 47 255 96 56 255 114 66 255 9 5
255 19 11 255 30 17 255 44 26 255 60 35 255 76 44 255 91 53 255 109 64
255 128 75 255 147 86 255 24 14 255 37 22 255 54 32 255 71 42 255 90 52
255 106 62 255 126 74 255 146 85 255 166 97 255 187 109 255 50 29
255 68 40 255 88 52 255 110 64 255 127 75 255 149 87 255 169 100
255 192 112 255 214 125 255 232 136 255 94 55 255 115 68 255 138 82
255 159 93 255 180 106 255 204 120 255 227 133 255 249 146 255 255 158
255 255 171 255 169 101 255 193 113 255 212 124 255 232 136 255 252 149
255 255 163 255 255 176 255 255 186 255 255 200 255 255 213 255 255 184
255 255 185 255 255 191 255 255 199 255 255 210 255 255 220 255 255 228
255 255 240 255 255 253 255 255 255 255 255 255 255 255 255 255 255 255
255 255 255 255 255 255 255 255 255 255 255 255 255 255 255 255 255 255
255 255 255 255 255 255 255 255 255 255 255 255 255 255 255 255 255 255
255 255 255 255 255 255 255 255 255 255 255 255 255 255 255
