P3
10 10
255
76 76 76 76 76 76 79 79 79 82 82 82 87 87 87 92 92 92 97 97 97 104 104 104 110 110 110 117 117 117
77 77 77 79 79 79 84 84 84 88 88 88 94 94 94 100 100 100 108 108 108 114 114 114 122 122 122 130 130 130
80 80 80 85 85 85 90 90 90 97 97 97 105 105 105 112 112 112 119 119 119 128 128 128 137 137 137 146 146 146
87 87 87 94 94 94 102 102 102 110 110 110 119 119 119 126 126 126 136 136 136 145 145 145 155 155 155 165 165 165
100 100 100 108 108 108 118 118 118 128 128 128 137 137 137 147 147 147 157 157 157 167 167 167 178 178 178 186 186 186
121 121 121 131 131 131 142 142 142 152 152 152 162 162 162 173 173 173 184 184 184 195 195 195 200 200 200 204 204 204
157 157 157 168 168 168 177 177 177 186 186 186 196 196 196 201 201 201 205 205 205 208 208 208 213 213 213 216 216 216
208 208 208 208 208 208 210 210 210 212 212 212 216 216 216 219 219 219 221 221 221 225 225 225 228 228 228 229 229 229
229 229 229 229 229 229 229 229 229 229 229 229 229 229 229 229 229 229 229 229 229 229 229 229 229 229 229 229 229 229
229 229 229 229 229 229 229 229 229 229 229 229 229 229 229 229 229 229 229 229 229 229 229 229 229 229 229 229 229 229
