P3
# Created by the Paint.NET plugin 'ImPNM.FileType'
5 5
255
170 170 170 85 85 85 0 0 0 85 85 85 170 170 170 170 170 170 85 85 85
0 0 0 85 85 85 170 170 170 170 170 170 85 85 85 0 0 0 85 85 85
170 170 170 170 170 170 85 85 85 0 0 0 85 85 85 170 170 170 170 170 170
85 85 85 0 0 0 85 85 85 170 170 170
